<?xml version="1.0" encoding="UTF-8" standalone="no"?>
<svg
   xmlns:dc="http://purl.org/dc/elements/1.1/"
   xmlns:cc="http://creativecommons.org/ns#"
   xmlns:rdf="http://www.w3.org/1999/02/22-rdf-syntax-ns#"
   xmlns:svg="http://www.w3.org/2000/svg"
   xmlns="http://www.w3.org/2000/svg"
   xmlns:sodipodi="http://sodipodi.sourceforge.net/DTD/sodipodi-0.dtd"
   xmlns:inkscape="http://www.inkscape.org/namespaces/inkscape"
   inkscape:version="1.0 (4035a4fb49, 2020-05-01)"
   sodipodi:docname="text-plus.svg"
   id="svg6"
   version="1.1"
   width="24"
   viewBox="0 0 24 24"
   height="24">
  <metadata
     id="metadata12">
    <rdf:RDF>
      <cc:Work
         rdf:about="">
        <dc:format>image/svg+xml</dc:format>
        <dc:type
           rdf:resource="http://purl.org/dc/dcmitype/StillImage" />
      </cc:Work>
    </rdf:RDF>
  </metadata>
  <defs
     id="defs10" />
  <sodipodi:namedview
     inkscape:current-layer="svg6"
     inkscape:window-maximized="0"
     inkscape:window-y="0"
     inkscape:window-x="0"
     inkscape:cy="12"
     inkscape:cx="12"
     inkscape:zoom="24.083333"
     showgrid="false"
     id="namedview8"
     inkscape:window-height="480"
     inkscape:window-width="880"
     inkscape:pageshadow="2"
     inkscape:pageopacity="0"
     guidetolerance="10"
     gridtolerance="10"
     objecttolerance="10"
     borderopacity="1"
     bordercolor="#666666"
     pagecolor="#ffffff" />
  <path
     id="path2"
     fill="none"
     d="M0 0h24v24H0V0zm0 0h24v24H0V0zm0 0h24v24H0V0z" />
  <path
     style="fill:#ffffff"
     id="path4"
     d="M18.35 4.35c-.2-.2-.51-.2-.71 0l-1.79 1.79c-.31.32-.09.86.36.86H17v12c0 .55.45 1 1 1s1-.45 1-1V7h.79c.45 0 .67-.54.35-.85l-1.79-1.8zM11.8 15.5v-5l1.6-.66c.36-.14.6-.49.6-.88 0-.69-.71-1.15-1.34-.88l-8.97 3.88c-.42.17-.69.58-.69 1.04 0 .46.27.87.69 1.05l8.97 3.88c.63.27 1.34-.2 1.34-.89 0-.39-.24-.74-.6-.89l-1.6-.65zM4.98 13L10 11.13v3.74L4.98 13z" />
</svg>
