<?xml version="1.0" encoding="UTF-8" standalone="no"?>
<svg
   xmlns:dc="http://purl.org/dc/elements/1.1/"
   xmlns:cc="http://creativecommons.org/ns#"
   xmlns:rdf="http://www.w3.org/1999/02/22-rdf-syntax-ns#"
   xmlns:svg="http://www.w3.org/2000/svg"
   xmlns="http://www.w3.org/2000/svg"
   xmlns:sodipodi="http://sodipodi.sourceforge.net/DTD/sodipodi-0.dtd"
   xmlns:inkscape="http://www.inkscape.org/namespaces/inkscape"
   inkscape:version="1.0 (4035a4fb49, 2020-05-01)"
   sodipodi:docname="text-minus.svg"
   id="svg6"
   version="1.1"
   width="24"
   viewBox="0 0 24 24"
   height="24">
  <metadata
     id="metadata12">
    <rdf:RDF>
      <cc:Work
         rdf:about="">
        <dc:format>image/svg+xml</dc:format>
        <dc:type
           rdf:resource="http://purl.org/dc/dcmitype/StillImage" />
      </cc:Work>
    </rdf:RDF>
  </metadata>
  <defs
     id="defs10" />
  <sodipodi:namedview
     inkscape:current-layer="svg6"
     inkscape:window-maximized="1"
     inkscape:window-y="-8"
     inkscape:window-x="-8"
     inkscape:cy="12"
     inkscape:cx="12"
     inkscape:zoom="24.083333"
     showgrid="false"
     id="namedview8"
     inkscape:window-height="745"
     inkscape:window-width="1366"
     inkscape:pageshadow="2"
     inkscape:pageopacity="0"
     guidetolerance="10"
     gridtolerance="10"
     objecttolerance="10"
     borderopacity="1"
     bordercolor="#666666"
     pagecolor="#ffffff" />
  <path
     id="path2"
     fill="none"
     d="M0 0h24v24H0V0zm0 0h24v24H0V0zm0 0h24v24H0V0z" />
  <path
     style="fill:#ffffff"
     id="path4"
     d="M6.35 19.65l1.79-1.79c.32-.32.1-.86-.35-.86H7V5c0-.55-.45-1-1-1s-1 .45-1 1v12h-.79c-.45 0-.67.54-.35.85l1.79 1.79c.19.2.51.2.7.01zM12.2 8.5v5l-1.6.66c-.36.15-.6.5-.6.89 0 .69.71 1.15 1.34.88l8.97-3.88c.42-.18.69-.59.69-1.05 0-.46-.27-.87-.69-1.05l-8.97-3.88c-.63-.27-1.34.2-1.34.89 0 .39.24.74.6.89l1.6.65zm6.82 2.5L14 12.87V9.13L19.02 11z" />
</svg>
